<?xml version="1.0" encoding="UTF-8"?>
<svg id="Layer_1" xmlns="http://www.w3.org/2000/svg" version="1.1" xmlns:xlink="http://www.w3.org/1999/xlink" viewBox="0 0 203 40">
  <!-- Generator: Adobe Illustrator 30.0.0, SVG Export Plug-In . SVG Version: 2.1.1 Build 123)  -->
  <defs>
    <style>
      .st0 {
        fill: url(#linear-gradient);
      }
    </style>
    <linearGradient id="linear-gradient" x1="4.89" y1="19.41" x2="54.64" y2="19.41" gradientUnits="userSpaceOnUse">
      <stop offset="0" stop-color="#1ff5ff"/>
      <stop offset="1" stop-color="#f07fff"/>
    </linearGradient>
  </defs>
  <path class="st0" d="M51.82,3.54c.87,2.16,1.56,4.4,2.03,6.68.56,2.75.86,5.54.78,8.43-.11,4.27-.98,8.32-3.39,11.88-4.22,6.25-12.71,8.94-19.33,4.64-1.28-.83-2.36-1.8-3.39-2.92-.13-.14-.34-.18-.48-.03-2.85,2.94-6.77,5.48-11,5.73-3.37.19-6.44-1.07-8.7-3.48-3.12-3.34-4.09-8.01-3.02-12.46.97-4.06,3.32-8.34,6.48-11.08.75-.65,1.64-1.07,2.63-1.15,1.55-.12,3.01.71,3.77,1.92.87,1.38.86,3.05.06,4.42-.28.48-.63.88-1,1.3-1.17,1.33-2.15,2.75-2.85,4.4-.77,1.84-1.29,4.43-.22,6.09,1.13,1.74,3.62,1.6,5.45.47,1.34-.82,2.31-2.02,3.03-3.41.02-.04.04-.08.05-.12l1.12-2.66c.51-1.21,1.39-2.22,2.56-2.78,1.66-.79,3.54-.37,4.71,1.03.4.48.74,1.01.99,1.6.46,1.08.93,2.1,1.56,3.1,1.46,2.34,4.01,4.03,6.79,3.26,2.36-.65,4.1-2.5,4.76-4.86.46-1.65.64-3.28.65-5.01.03-3.04.07-6.15-1-9.01-.41-1.09-.77-2.12-1.08-3.08-1.69-5.24,5.97-8.02,8.03-2.92h0Z"/>
  <g>
    <path d="M95.58,9.61h-4.32c-.17,0-.33.11-.38.28l-4.47,13.96c-.12.37-.64.37-.76,0l-4.62-13.97c-.05-.16-.21-.28-.38-.28h-4.22c-.17,0-.33.11-.38.28l-4.62,14c-.12.37-.65.37-.77,0l-4.43-14c-.05-.17-.21-.28-.38-.28h-4.44c-.28,0-.47.28-.38.54l7.4,20.51c.06.16.21.27.38.27h4.27c.17,0,.33-.11.38-.28l4.63-14.3c.12-.37.64-.37.76,0l4.67,14.3c.05.17.21.28.38.28h4.27c.17,0,.32-.11.38-.27l7.4-20.51c.09-.26-.1-.54-.38-.54Z"/>
    <path d="M141.23,26.42h-10.09c-.28,0-.43-.32-.26-.54l10.32-12.78c.05-.06.07-.13.07-.21v-2.94c0-.18-.15-.33-.33-.33h-16.85c-.18,0-.33.15-.33.33v3.85c0,.18.15.33.33.33h9.63c.28,0,.43.32.26.54l-6.38,7.91h0s-3.13,3.83-7.36,3.83c0,0,0,0-.01,0-1.13-.07-1.77-.81-1.77-1.96v-14.5c0-.19-.15-.34-.34-.34h-3.93c-.23,0-.41.19-.41.41v1.8c0,.28-.34.42-.54.21-1.73-1.84-4.12-2.93-6.94-2.93-6.02,0-10.49,4.81-10.49,11.16h0c0,6.35,4.47,11.16,10.49,11.16,3.22,0,5.92-1.43,7.71-3.81.04,0,.05,0,.09.02.65,2.15,2.48,3.29,5.36,3.29h.38c.06,0,.12,0,.18-.02,0,.01.02.02.04.02h21.17c.18,0,.33-.15.33-.33v-3.85c0-.18-.15-.33-.33-.33ZM107.21,26.92c-3.4,0-6-2.3-6.51-5.48-.74-4.56,3.26-8.54,7.8-7.7,3.09.58,5.27,3.21,5.27,6.53,0,3.76-2.76,6.64-6.56,6.64Z"/>
    <path d="M153.52,9.11c-6.48,0-11.37,4.81-11.37,11.16h0s0,0,0,0c0,6.35,4.89,11.16,11.49,11.16,4.95,0,9.06-2.68,10.84-6.68.05-.12-.03-.26-.17-.26h-4.8c-.06,0-.12.03-.15.08-1.1,1.59-3.2,2.64-5.63,2.64-3.26,0-5.72-1.95-6.5-4.91-.03-.12.06-.23.18-.23h17.24c.09,0,.17-.07.18-.16.07-.5.1-1.07.1-1.6,0-6.39-4.93-11.2-11.41-11.2ZM159.67,18.22h-12.47c.75-2.97,3.13-4.89,6.31-4.89s5.55,1.86,6.33,4.66c.03.12-.06.23-.18.23Z"/>
    <path d="M175.6,26.42h-.56c-1.58,0-2.85-1.28-2.85-2.85V1.23c0-.21-.17-.39-.39-.39h-3.91c-.21,0-.39.17-.39.39v23.77c0,3.84,2.26,5.93,6.52,5.93h1.58c.21,0,.39-.17.39-.39v-3.74c0-.21-.17-.39-.39-.39Z"/>
    <path d="M197.84,9.61h-4.21c-.19,0-.36.12-.43.29l-5.64,14.18c-.15.39-.7.39-.86,0l-5.67-14.15c-.08-.19-.27-.32-.47-.32h-4.52c-.23,0-.38.23-.29.44l8.67,20.38c.05.12.05.27-.01.39l-.28.56c-1.17,2.3-2.59,3.26-5.14,3.26h-.48c-.08,0-.15.07-.15.15l.08,3.95c0,.23.18.41.41.41h.13c5.1,0,7.65-1.46,9.24-5.31l10.05-23.6c.13-.3-.09-.64-.42-.64Z"/>
  </g>
</svg>